<svg xmlns="http://www.w3.org/2000/svg" viewBox="0 0 24 24">
  <path d="M19 23h2v-1.999h-2V23zm0-19.999h-2V2c0-.552-.447-1-1-1s-1 .448-1 1v1H9V2c0-.552-.448-1-1-1-.553 0-1 .448-1 1v1H5c-1.104 0-2 .895-2 2v16c0 1.105.896 2 2 2h12v-1.999H5V5h2v1c0 .552.447 1 1 1 .552 0 1-.448 1-1V5h6v1c0 .552.447 1 1 1s1-.448 1-1V5h2v14h2V5c0-1.104-.896-1.999-2-1.999zM8 19h2v-2H8v2zm3 0h2v-2h-2v2zm3 0h2v-2h-2v2zm-4-5H8v2.001h2V14zm3 0h-2v2.001h2V14zm3 0h-2v2.001h2V14zm-6-3H8v2h2v-2zm3 0h-2v2h2v-2zm3 0h-2v2h2v-2z"/>
</svg>
