<svg xmlns="http://www.w3.org/2000/svg" viewBox="0 0 24 24">
  <path d="M17.018 18.995h2v2h-2zM21.925 9.444c-.172-.516-.614-.894-1.147-.976l-5.192-.8-2.257-4.852a1.44 1.44 0 0 0-1.306-.835c-.558 0-1.067.326-1.304.835l-2.26 4.852-5.193.8c-.534.082-.977.46-1.149.976-.172.517-.042 1.087.335 1.475l3.805 3.937-.883 5.457c-.089.549.141 1.102.592 1.422.248.175.539.265.83.265.24 0 .479-.061.697-.182l4.527-2.523 2.98 1.66v-2.289l-2.006-1.118-.974-.543-.974.543-3.516 1.96.701-4.334.16-.988-.696-.722-3.076-3.181 4.144-.638 1.058-.163.452-.97 1.749-3.759 1.75 3.759.451.97 1.057.163 4.146.639-3.076 3.181-.697.721.16.989.297 1.843h2.027l-.351-2.162 3.807-3.936c.375-.389.505-.959.332-1.476z"/>
</svg>
