<svg xmlns="http://www.w3.org/2000/svg" viewBox="0 0 24 24">
  <path fill-rule="evenodd" d="M2 5.999v2h16v-2H2zm3-3H3v2h2v-2zm3 0H6v2h2v-2zm3 0H9v2h2v-2zm-6 9h2v-2H5v2zm8 0h2v-2h-2v2zm-5.992 2.102c0 1.047 1.341 1.895 2.996 1.895S13 15.147 13 14.101v-.1H7.008v.1z" clip-rule="evenodd"/>
  <path d="M18 15.999V18H11.543l-.423.211-5.105 2.553V18H2V2h16V9.999h2V2c0-1.104-.896-2-2-2H2C.895 0 0 .896 0 2v16c0 1.104.896 2 2 2h2.015v4l8-4H18c1.104 0 2-.896 2-2v-2.001h-2z"/>
  <path fill-rule="evenodd" d="M18 12h2v2h-2z" clip-rule="evenodd"/>
</svg>
