<svg
			xmlns="http://www.w3.org/2000/svg"
			xmlns:xlink="http://www.w3.org/1999/xlink"
			width="34px" height="34px">
			<path fill-rule="evenodd"  fill="rgb(255, 255, 255)"
				  d="M31.173,25.379 L31.157,25.367 C30.791,25.922 30.405,26.461 29.978,26.967 L28.223,24.335 C28.490,23.963 28.742,23.580 28.978,23.186 C29.112,22.962 29.233,22.732 29.355,22.501 C29.602,22.029 29.826,21.544 30.020,21.043 C30.631,19.475 31.000,17.785 31.000,16.000 C31.000,12.850 29.948,9.954 28.192,7.615 L29.656,4.687 C32.346,7.694 34.000,11.648 34.000,16.000 C34.000,19.468 32.956,22.690 31.173,25.379 ZM6.837,29.604 C2.945,26.692 0.363,22.157 0.060,17.000 L0.050,17.000 C0.031,16.667 -0.000,16.337 -0.000,16.000 L-0.000,16.000 L-0.000,16.000 C-0.000,14.901 0.113,13.829 0.313,12.787 L3.090,14.454 C3.070,14.633 3.072,14.819 3.058,15.000 L3.062,15.000 C3.038,15.332 3.000,15.661 3.000,16.000 C3.000,20.480 5.113,24.459 8.387,27.021 L6.837,29.604 Z"/>
			<path fill-rule="evenodd"  fill="rgb(255, 255, 255)"
				  d="M24.500,28.000 C25.328,28.000 26.000,28.672 26.000,29.500 C26.000,30.328 25.328,31.000 24.500,31.000 C23.672,31.000 23.000,30.328 23.000,29.500 C23.000,28.672 23.672,28.000 24.500,28.000 Z"/>
			<path fill-rule="evenodd"  fill="rgb(255, 255, 255)"
				  d="M18.500,30.000 C19.328,30.000 20.000,30.671 20.000,31.500 C20.000,32.328 19.328,33.000 18.500,33.000 C17.671,33.000 17.000,32.328 17.000,31.500 C17.000,30.671 17.671,30.000 18.500,30.000 Z"/>
			<path fill-rule="evenodd"  fill="rgb(255, 255, 255)"
				  d="M7.500,2.000 C8.328,2.000 9.000,2.671 9.000,3.500 C9.000,4.328 8.328,5.000 7.500,5.000 C6.672,5.000 6.000,4.328 6.000,3.500 C6.000,2.671 6.672,2.000 7.500,2.000 Z"/>
			<path fill-rule="evenodd"  fill="rgb(255, 255, 255)"
				  d="M3.500,7.000 C4.328,7.000 5.000,7.671 5.000,8.500 C5.000,9.328 4.328,10.000 3.500,10.000 C2.672,10.000 2.000,9.328 2.000,8.500 C2.000,7.671 2.672,7.000 3.500,7.000 Z"/>
			<path fill-rule="evenodd"  fill="rgb(255, 255, 255)"
				  d="M12.624,0.005 L28.312,-0.000 L21.562,12.900 L27.000,12.900 L10.000,34.000 L15.000,17.000 L8.000,17.000 L12.624,0.005 Z"/>
		</svg>