<svg xmlns="http://www.w3.org/2000/svg" viewBox="0 0 24 24">
  <path d="M17.355 9.332L9.548 4.545c-.573-.349-1.156-.524-1.739-.524C6.413 4.021 5 5.115 5 7.205V10h2V7.204c0-.749.314-1.184.809-1.184.204 0 .438.074.694.229l7.815 4.792c.879.533.924 1.406.043 1.939l-7.858 4.79c-.256.157-.491.23-.695.23C7.314 18 7 17.566 7 16.818v-.793-.024H5V16.818C5 18.907 6.413 20 7.808 20c.583 0 1.167-.175 1.735-.521l7.859-4.789C18.416 14.074 19 13.107 19 12.038c.001-1.086-.6-2.072-1.645-2.706z"/>
  <path d="M5 12h2v2H5z"/>
</svg>
