<svg
	xmlns="http://www.w3.org/2000/svg"
	xmlns:xlink="http://www.w3.org/1999/xlink"
	width="18px" height="18px">
	<path fill-rule="evenodd"  fill="#9A9FBF"
		  d="M6.000,3.999 L6.000,2.000 L18.000,2.000 L18.000,3.999 L6.000,3.999 ZM-0.000,3.999 L-0.000,2.000 L4.000,2.000 L4.000,3.999 L-0.000,3.999 Z"/>
	<path fill-rule="evenodd"  fill="#9A9FBF"
		  d="M5.000,5.999 C3.343,5.999 2.000,4.656 2.000,3.000 C2.000,1.343 3.343,-0.001 5.000,-0.001 C6.657,-0.001 8.000,1.343 8.000,3.000 C8.000,4.656 6.657,5.999 5.000,5.999 ZM6.000,2.000 L4.000,2.000 L4.000,3.999 L6.000,3.999 L6.000,2.000 Z"/>
	<path fill-rule="evenodd"  fill="#9A9FBF"
		  d="M12.000,9.999 L12.000,8.000 L-0.000,8.000 L-0.000,9.999 L12.000,9.999 ZM18.000,9.999 L18.000,8.000 L14.000,8.000 L14.000,9.999 L18.000,9.999 Z"/>
	<path fill-rule="evenodd"  fill="#9A9FBF"
		  d="M13.000,12.000 C11.343,12.000 10.000,10.657 10.000,9.000 C10.000,7.343 11.343,5.999 13.000,5.999 C14.657,5.999 16.000,7.343 16.000,9.000 C16.000,10.657 14.657,12.000 13.000,12.000 ZM14.000,8.000 L12.000,8.000 L12.000,9.999 L14.000,9.999 L14.000,8.000 Z"/>
	<path fill-rule="evenodd"  fill="#9A9FBF"
		  d="M6.000,15.999 L6.000,13.999 L14.000,13.999 L14.000,15.999 L6.000,15.999 ZM-0.000,15.999 L-0.000,13.999 L4.000,13.999 L4.000,15.999 L-0.000,15.999 Z"/>
	<path fill-rule="evenodd"  fill="#9A9FBF"
		  d="M5.000,18.000 C3.343,18.000 2.000,16.657 2.000,14.999 C2.000,13.342 3.343,12.000 5.000,12.000 C6.657,12.000 8.000,13.342 8.000,14.999 C8.000,16.657 6.657,18.000 5.000,18.000 ZM6.000,13.999 L4.000,13.999 L4.000,15.999 L6.000,15.999 L6.000,13.999 Z"/>
	<path fill-rule="evenodd"  fill="#9A9FBF"
		  d="M16.000,13.999 L18.000,13.999 L18.000,15.999 L16.000,15.999 L16.000,13.999 Z"/>
</svg>