<svg
	xmlns="http://www.w3.org/2000/svg"
	xmlns:xlink="http://www.w3.org/1999/xlink"
	width="36px" height="36px">
	<path fill-rule="evenodd"  fill="rgb(255, 255, 255)"
		  d="M30.000,7.999 L30.000,9.999 L28.000,9.999 L28.000,7.999 L26.000,7.999 L26.000,5.999 L28.000,5.999 L28.000,3.999 L30.000,3.999 L30.000,5.999 L32.000,5.999 L32.000,7.999 L30.000,7.999 Z"/>
	<path fill-rule="evenodd"  fill="rgb(255, 255, 255)"
		  d="M21.000,28.000 L21.000,26.000 L25.000,26.000 L25.000,24.000 C25.000,22.896 24.103,22.000 23.000,22.000 L13.000,22.000 C11.897,22.000 11.000,22.896 11.000,24.000 L11.000,26.000 L15.000,26.000 L15.000,28.000 L9.000,28.000 L9.000,24.000 C9.000,21.791 10.791,20.000 13.000,20.000 L23.000,20.000 C25.209,20.000 27.000,21.791 27.000,24.000 L27.000,28.000 L21.000,28.000 ZM18.000,18.000 C15.239,18.000 13.000,15.762 13.000,13.000 C13.000,10.239 15.239,8.000 18.000,8.000 C20.762,8.000 23.000,10.239 23.000,13.000 C23.000,15.762 20.762,18.000 18.000,18.000 ZM18.000,10.000 C16.346,10.000 15.000,11.346 15.000,13.000 C15.000,14.654 16.346,16.000 18.000,16.000 C19.654,16.000 21.000,14.654 21.000,13.000 C21.000,11.346 19.654,10.000 18.000,10.000 ZM19.000,28.000 L17.000,28.000 L17.000,26.000 L19.000,26.000 L19.000,28.000 Z"/>
</svg>