<svg
	xmlns="http://www.w3.org/2000/svg"
	xmlns:xlink="http://www.w3.org/1999/xlink"
	width="24px" height="24px">
	<path fill-rule="evenodd"  fill="rgb(255, 255, 255)"
		  d="M13.000,23.524 L13.000,21.413 C15.930,20.225 18.000,17.355 18.000,13.999 C18.000,9.581 14.418,5.999 10.000,5.999 C5.581,5.999 2.000,9.581 2.000,13.999 C2.000,17.355 4.069,20.225 7.000,21.413 L7.000,23.530 C2.939,22.259 -0.008,18.470 -0.008,13.992 C-0.008,8.472 4.469,3.998 9.991,3.998 C15.514,3.998 19.992,8.472 19.992,13.992 C19.992,18.463 17.052,22.248 13.000,23.524 ZM11.000,21.930 L11.000,23.935 C10.668,23.968 10.332,23.986 9.991,23.986 C9.657,23.986 9.326,23.968 9.000,23.936 L9.000,21.930 C9.328,21.971 9.660,21.999 10.000,21.999 C10.339,21.999 10.671,21.971 11.000,21.930 Z"/>
	<path fill-rule="evenodd"  fill="rgb(255, 255, 255)"
		  d="M5.000,11.999 L7.000,11.999 L7.000,13.999 L5.000,13.999 L5.000,11.999 Z"/>
	<path fill-rule="evenodd"  fill="rgb(255, 255, 255)"
		  d="M13.000,11.999 L14.999,11.999 L14.999,13.999 L13.000,13.999 L13.000,11.999 Z"/>
	<path fill-rule="evenodd"  fill="rgb(255, 255, 255)"
		  d="M12.982,16.001 L12.982,16.100 C12.982,17.147 11.641,17.996 9.986,17.996 C8.332,17.996 6.991,17.147 6.991,16.100 L6.991,16.001 L12.982,16.001 Z"/>
	<path fill-rule="evenodd"  fill="rgb(255, 255, 255)"
		  d="M9.000,21.999 L11.000,21.999 L11.000,23.999 L9.000,23.999 L9.000,21.999 Z"/>
	<path fill-rule="evenodd"  fill="rgb(255, 255, 255)"
		  d="M22.000,3.999 L22.000,5.999 L20.000,5.999 L20.000,3.999 L18.000,3.999 L18.000,1.999 L20.000,1.999 L20.000,-0.001 L22.000,-0.001 L22.000,1.999 L24.000,1.999 L24.000,3.999 L22.000,3.999 Z"/>
</svg>