<svg
	xmlns="http://www.w3.org/2000/svg"
	xmlns:xlink="http://www.w3.org/1999/xlink"
	width="20px" height="18px">
	<path fill-rule="evenodd"  fill="rgb(255, 255, 255)"
		  d="M16.531,16.938 C16.078,17.578 15.338,18.000 14.496,18.000 C13.115,18.000 12.000,16.879 12.000,15.502 L12.000,10.501 C12.000,9.123 13.115,8.001 14.496,8.001 C15.064,8.001 15.579,8.200 16.000,8.521 L16.000,8.000 C16.000,4.691 13.309,2.000 10.000,2.000 C9.468,2.000 8.956,2.076 8.464,2.206 L7.300,0.477 C8.145,0.174 9.051,-0.000 10.000,-0.000 C14.418,-0.000 18.000,3.582 18.000,8.000 L18.000,9.561 C19.190,10.252 20.000,11.523 20.000,13.000 C20.000,15.028 18.486,16.677 16.531,16.938 ZM15.000,10.501 C15.000,10.225 14.776,10.001 14.500,10.001 C14.224,10.001 14.000,10.225 14.000,10.501 L14.000,15.502 C14.000,15.777 14.224,16.000 14.500,16.000 C14.776,16.000 15.000,15.777 15.000,15.502 L15.000,10.501 ZM17.000,11.279 L17.000,14.688 C18.000,14.348 17.994,13.718 17.994,12.984 C17.994,12.251 18.000,11.621 17.000,11.279 ZM8.000,15.502 C8.000,16.879 6.883,18.000 5.504,18.000 C4.661,18.000 3.922,17.578 3.469,16.938 C1.515,16.676 -0.000,15.027 -0.000,13.000 C-0.000,11.523 0.810,10.253 2.000,9.561 L2.000,8.000 C2.000,7.052 2.174,6.146 2.477,5.302 L4.205,6.470 C4.076,6.959 4.000,7.470 4.000,8.000 L4.000,8.520 C4.420,8.199 4.935,8.001 5.504,8.001 C6.883,8.001 8.000,9.123 8.000,10.501 L8.000,15.502 ZM3.000,11.280 C2.000,11.623 2.008,12.252 2.008,12.984 C2.008,13.717 2.000,14.346 3.000,14.687 L3.000,11.280 ZM6.000,10.501 C6.000,10.225 5.776,10.001 5.500,10.001 C5.224,10.001 5.000,10.225 5.000,10.501 L5.000,15.502 C5.000,15.777 5.224,16.000 5.500,16.000 C5.776,16.000 6.000,15.777 6.000,15.502 L6.000,10.501 ZM4.021,1.979 L6.021,1.979 L6.021,3.979 L4.021,3.979 L4.021,1.979 Z"/>
</svg>