<svg
	xmlns="http://www.w3.org/2000/svg"
	xmlns:xlink="http://www.w3.org/1999/xlink"
	width="20px" height="18px">
	<path fill-rule="evenodd"  fill="#9A9FBF"
		  d="M15.000,2.000 L15.000,-0.000 L13.000,-0.000 L7.000,-0.000 L5.000,-0.000 L5.000,2.000 L-0.000,2.000 L-0.000,4.000 L2.000,4.000 L2.000,16.000 C2.000,17.104 2.896,18.000 4.000,18.000 L7.000,18.000 L7.000,16.000 L4.000,16.000 L4.000,4.000 L5.000,4.000 L7.000,4.000 L7.000,2.000 L13.000,2.000 L13.000,4.000 L15.000,4.000 L16.000,4.000 L16.000,16.000 L13.000,16.000 L13.000,18.000 L16.000,18.000 C17.103,18.000 18.000,17.104 18.000,16.000 L18.000,4.000 L20.000,4.000 L20.000,2.000 L15.000,2.000 ZM9.000,18.000 L11.000,18.000 L11.000,16.000 L9.000,16.000 L9.000,18.000 ZM9.000,6.000 L7.000,6.000 L7.000,14.000 L9.000,14.000 L9.000,6.000 ZM13.000,6.000 L11.000,6.000 L11.000,14.000 L13.000,14.000 L13.000,6.000 Z"/>
</svg>