<svg
	xmlns="http://www.w3.org/2000/svg"
	xmlns:xlink="http://www.w3.org/1999/xlink"
	width="26px" height="26px">
	<path fill-rule="evenodd"  stroke="rgb(255, 255, 255)" stroke-width="2px" stroke-linecap="butt" stroke-linejoin="miter" fill="none"
		  d="M16.868,18.975 C16.644,17.829 16.460,16.889 16.460,16.889 L20.766,12.589 C20.974,12.381 21.051,12.078 20.966,11.800 C20.881,11.519 20.649,11.308 20.363,11.250 L14.186,10.013 L11.723,4.469 C11.596,4.183 11.311,3.999 10.998,3.999 L10.998,3.999 C10.686,3.999 10.401,4.185 10.273,4.470 L7.811,10.013 L1.632,11.250 C1.347,11.308 1.117,11.519 1.032,11.800 C0.947,12.076 1.024,12.379 1.231,12.589 L5.534,16.889 L4.332,23.046 C4.272,23.347 4.350,23.638 4.582,23.825 C4.721,23.934 4.899,23.994 5.084,23.994 C5.195,23.994 5.304,23.971 5.402,23.926 L10.998,21.444 C10.998,21.444 11.947,22.025 13.000,22.999 "/>
	<path fill-rule="evenodd"  fill="rgb(255, 255, 255)"
		  d="M16.000,20.999 L18.000,20.999 L18.000,22.999 L16.000,22.999 L16.000,20.999 Z"/>
	<path fill-rule="evenodd"  fill="rgb(255, 255, 255)"
		  d="M23.000,4.000 L23.000,5.999 L21.000,5.999 L21.000,4.000 L19.000,4.000 L19.000,1.999 L21.000,1.999 L21.000,-0.000 L23.000,-0.000 L23.000,1.999 L25.000,1.999 L25.000,4.000 L23.000,4.000 Z"/>
</svg>