<svg
	xmlns="http://www.w3.org/2000/svg"
	xmlns:xlink="http://www.w3.org/1999/xlink"
	width="20px" height="20px">
	<path fill-rule="evenodd"  fill="#9A9FBF"
		  d="M19.397,7.812 L12.156,15.053 C12.156,15.053 12.156,15.053 12.156,15.053 L7.812,19.397 C7.012,20.197 5.715,20.197 4.915,19.397 L0.571,15.053 C-0.229,14.253 -0.229,12.956 0.571,12.156 L2.019,10.708 L3.467,12.156 L4.915,10.708 L3.467,9.260 L5.639,7.088 L5.640,7.088 L7.088,5.640 L7.088,5.640 L6.848,5.879 L7.812,4.915 C7.812,4.915 7.812,4.915 7.812,4.915 L10.708,2.019 L10.708,2.019 L7.812,4.915 C8.612,4.116 9.908,4.116 10.708,4.915 L13.604,7.812 L12.156,9.260 L9.260,6.364 L8.536,7.088 L7.088,5.640 L5.640,7.088 L7.088,8.536 L8.363,7.261 L2.019,13.604 L6.364,17.949 L7.812,16.501 L9.260,17.949 L12.156,15.053 C11.356,15.852 10.060,15.852 9.260,15.053 L6.364,12.156 L7.812,10.708 L10.708,13.604 L17.949,6.364 L13.604,2.019 L12.156,3.467 L10.708,2.019 L12.156,0.571 C12.956,-0.229 14.253,-0.229 15.052,0.571 L19.397,4.915 C20.197,5.715 20.197,7.012 19.397,7.812 ZM5.639,7.088 L6.848,5.879 L5.639,7.088 L5.639,7.088 Z"/>
</svg>