<svg
	xmlns="http://www.w3.org/2000/svg"
	xmlns:xlink="http://www.w3.org/1999/xlink"
	width="20px" height="22px">
	<path fill-rule="evenodd"  fill="rgb(255, 255, 255)"
		  d="M13.000,21.525 L13.000,19.413 C15.930,18.226 18.000,15.356 18.000,12.000 C18.000,8.643 15.930,5.774 13.000,4.587 L13.000,2.461 C17.052,3.737 19.992,7.521 19.992,11.993 C19.992,16.464 17.052,20.248 13.000,21.525 ZM7.000,4.587 C4.069,5.774 2.000,8.643 2.000,12.000 C2.000,15.356 4.069,18.226 7.000,19.413 L7.000,21.531 C2.939,20.259 -0.008,16.470 -0.008,11.993 C-0.008,7.515 2.939,3.725 7.000,2.454 L7.000,4.587 Z"/>
	<path fill-rule="evenodd"  fill="rgb(255, 255, 255)"
		  d="M9.000,-0.000 L11.000,-0.000 L11.000,10.000 L9.000,10.000 L9.000,-0.000 Z"/>
	<path fill-rule="evenodd"  fill="rgb(255, 255, 255)"
		  d="M9.000,20.000 L11.000,20.000 L11.000,22.000 L9.000,22.000 L9.000,20.000 Z"/>
</svg>