<svg
	xmlns="http://www.w3.org/2000/svg"
	xmlns:xlink="http://www.w3.org/1999/xlink"
	width="20px" height="20px">
	<path fill-rule="evenodd"  fill="rgb(255, 255, 255)"
		  d="M9.224,19.999 L0.001,10.767 L10.759,0.001 L15.999,0.001 L15.999,2.001 L11.999,2.001 L11.579,2.001 L2.828,10.765 L9.223,17.168 L17.999,8.397 L17.999,4.001 L19.999,4.001 L19.999,9.225 L9.224,19.999 ZM17.999,0.001 L19.999,0.001 L19.999,2.001 L17.999,2.001 L17.999,0.001 ZM13.999,9.001 C12.343,9.001 10.999,7.658 10.999,6.001 C10.999,4.344 12.343,3.001 13.999,3.001 C15.655,3.001 16.999,4.344 16.999,6.001 C16.999,7.658 15.655,9.001 13.999,9.001 ZM13.999,5.001 C13.447,5.001 12.999,5.450 12.999,6.001 C12.999,6.552 13.447,7.001 13.999,7.001 C14.551,7.001 14.999,6.552 14.999,6.001 C14.999,5.450 14.551,5.001 13.999,5.001 Z"/>
</svg>