<?xml version="1.0" encoding="utf-8"?>
<!-- Generator: Adobe Illustrator 16.0.0, SVG Export Plug-In . SVG Version: 6.00 Build 0)  -->
<!DOCTYPE svg PUBLIC "-//W3C//DTD SVG 1.1//EN" "http://www.w3.org/Graphics/SVG/1.1/DTD/svg11.dtd">
<svg version="1.1" id="Orders_Icon" xmlns="http://www.w3.org/2000/svg" xmlns:xlink="http://www.w3.org/1999/xlink" x="0px"
	 y="0px" width="20px" height="20px" viewBox="0 0 20 20" enable-background="new 0 0 20 20" xml:space="preserve">
<path fill-rule="evenodd" clip-rule="evenodd" fill="#9A9FBF" d="M18,10v2v6c0,1.104-0.896,2-2,2H4c-1.104,0-2-0.896-2-2v-6v-2
	c-1.104,0-2-0.896-2-2V6c0-1.104,0.896-2,2-2h16c1.104,0,2,0.896,2,2v2C20,9.104,19.104,10,18,10z M4,18h12v-8H4V18z M18,6H2v2h16V6
	z"/>
<rect x="9" y="10" fill-rule="evenodd" clip-rule="evenodd" fill="#9A9FBF" width="2" height="8"/>
<path fill="#9A9FBF" d="M8,2c0.552,0,1,0.449,1,1S8.552,4,8,4H6C5.448,4,5,3.551,5,3s0.448-1,1-1H8 M8,0H6C4.343,0,3,1.343,3,3
	s1.343,3,3,3h2c1.656,0,3-1.343,3-3S9.656,0,8,0L8,0z"/>
<path fill="#9A9FBF" d="M14,2c0.551,0,1,0.449,1,1s-0.449,1-1,1h-2c-0.551,0-1-0.449-1-1s0.449-1,1-1H14 M14,0h-2
	c-1.656,0-3,1.343-3,3s1.344,3,3,3h2c1.656,0,3-1.343,3-3S15.656,0,14,0L14,0z"/>
</svg>
