<?xml version="1.0" encoding="utf-8"?>
<!-- Generator: Adobe Illustrator 16.0.0, SVG Export Plug-In . SVG Version: 6.00 Build 0)  -->
<!DOCTYPE svg PUBLIC "-//W3C//DTD SVG 1.1//EN" "http://www.w3.org/Graphics/SVG/1.1/DTD/svg11.dtd">
<svg version="1.1" id="Track_Icon" xmlns="http://www.w3.org/2000/svg" xmlns:xlink="http://www.w3.org/1999/xlink" x="0px" y="0px"
	 width="20px" height="20px" viewBox="0 0 20 20" enable-background="new 0 0 20 20" xml:space="preserve">
<g>
	<g>
		<path fill-rule="evenodd" clip-rule="evenodd" fill="#9A9FBF" d="M10,4C8.344,4,7,5.343,7,7c0,1.656,1.344,3,3,3
			c1.657,0,3-1.344,3-3C13,5.343,11.657,4,10,4z M11,8H9V6h2V8z M3,8h2V6H3V8z"/>
	</g>
</g>
<path fill="#9A9FBF" d="M10,0C7.287,0,4.94,1.626,3.778,4h2.359C7.055,2.79,8.436,2,10,2c2.757,0,5,2.406,5,5.363
	c0,4.109-3.461,9.002-5,10.386C8.735,16.617,6.393,13.257,5.433,10H3.366C4.596,14.899,8.663,20,10,20c1.581,0,7-7.035,7-12.637
	C17,3.297,13.866,0,10,0z"/>
</svg>
