<svg
	xmlns="http://www.w3.org/2000/svg"
	xmlns:xlink="http://www.w3.org/1999/xlink"
	width="24px" height="22px">
	<path fill-rule="evenodd"  fill="rgb(255, 255, 255)"
		  d="M13.000,21.524 L13.000,19.413 C15.930,18.225 18.000,15.356 18.000,11.999 C18.000,7.581 14.418,3.999 10.000,3.999 C5.581,3.999 2.000,7.581 2.000,11.999 C2.000,15.356 4.069,18.225 7.000,19.413 L7.000,21.530 C2.939,20.259 -0.009,16.470 -0.009,11.992 C-0.009,6.472 4.469,1.998 9.991,1.998 C15.514,1.998 19.992,6.472 19.992,11.992 C19.992,16.463 17.052,20.248 13.000,21.524 ZM11.000,19.930 L11.000,21.935 C10.668,21.968 10.332,21.986 9.991,21.986 C9.657,21.986 9.326,21.968 9.000,21.936 L9.000,19.930 C9.328,19.971 9.660,19.999 10.000,19.999 C10.339,19.999 10.671,19.971 11.000,19.930 Z"/>
	<path fill-rule="evenodd"  fill="rgb(255, 255, 255)"
		  d="M5.000,9.999 L7.000,9.999 L7.000,11.999 L5.000,11.999 L5.000,9.999 Z"/>
	<path fill-rule="evenodd"  fill="rgb(255, 255, 255)"
		  d="M12.999,9.999 L14.999,9.999 L14.999,11.999 L12.999,11.999 L12.999,9.999 Z"/>
	<path fill-rule="evenodd"  fill="rgb(255, 255, 255)"
		  d="M12.982,14.001 L12.982,14.101 C12.982,15.147 11.641,15.996 9.986,15.996 C8.332,15.996 6.991,15.147 6.991,14.101 L6.991,14.001 L12.982,14.001 Z"/>
	<path fill-rule="evenodd"  fill="rgb(255, 255, 255)"
		  d="M9.000,19.999 L11.000,19.999 L11.000,21.999 L9.000,21.999 L9.000,19.999 Z"/>
	<path fill-rule="evenodd"  fill="rgb(255, 255, 255)"
		  d="M18.000,-0.000 L24.000,-0.000 L24.000,2.000 L18.000,2.000 L18.000,-0.000 Z"/>
</svg>