<svg xmlns="http://www.w3.org/2000/svg" viewBox="0 0 32 32">
	<path fill="#fff" d="M14.4 24h3.2v3.2h-3.2V24zM17.6 0h3.2L8 32H4.8L17.6 0zM16.667 20.733C19 20.407 20.8 18.424 20.8 16a4.745 4.745 0 00-1.053-2.966l-3.08 7.699zM11.2 9.421V5.855C4.709 8.641 0 16.001 0 16.001s1.838 2.872 4.8 5.706v-4.658c-.31-.363-.606-.718-.867-1.054 1.64-2.104 4.28-4.907 7.267-6.573zM20.8 5.854v3.578c2.979 1.67 5.624 4.47 7.267 6.573-1.64 2.106-4.28 4.907-7.267 6.574v3.566C27.291 23.359 32 15.999 32 15.999S27.291 8.641 20.8 5.853z"/>
</svg>