<svg
	xmlns="http://www.w3.org/2000/svg"
	xmlns:xlink="http://www.w3.org/1999/xlink"
	width="18px" height="20px">
	<path fill-rule="evenodd"  fill="rgb(255, 255, 255)"
		  d="M16.097,13.025 L5.089,19.425 C4.430,19.806 3.775,20.000 3.124,20.000 C1.619,20.000 0.015,18.880 0.015,16.420 L0.015,13.001 L2.008,13.001 L2.008,16.420 C2.008,17.420 2.432,18.000 3.125,18.000 C3.411,18.000 3.724,17.901 4.083,17.693 L15.097,11.295 C16.332,10.583 16.270,9.417 15.038,8.706 L4.090,2.306 C3.732,2.098 3.410,2.000 3.125,2.000 C2.432,2.000 2.008,2.580 2.008,3.581 L2.008,7.001 L0.015,7.001 L0.015,3.581 C0.015,1.121 1.619,0.000 3.125,0.000 C3.774,0.000 4.422,0.194 5.085,0.578 L16.027,6.972 C17.271,7.690 17.985,8.807 17.985,10.037 C17.984,11.244 17.295,12.335 16.097,13.025 ZM2.008,11.001 L0.015,11.001 L0.015,9.001 L2.008,9.001 L2.008,11.001 Z"/>
</svg>